<?xml version="1.0" encoding="utf-8"?>
<svg xmlns="http://www.w3.org/2000/svg" viewBox="0 0 24 24" width="384" height="384">
  <circle cx="19" cy="5" r="2" fill="#F2F2F2" />
  <path d="M20.611,11h-3.223C16.622,11,16,10.378,16,9.611V9.389C16,8.622,16.622,8,17.389,8h3.223C21.378,8,22,8.622,22,9.389v0.223C22,10.378,21.378,11,20.611,11z" fill="#F2F2F2" />
  <circle cx="19" cy="15" r="2" fill="#F2F2F2" />
  <path d="M20.611,21h-3.223C16.622,21,16,20.378,16,19.611v-0.223C16,18.622,16.622,18,17.389,18h3.223C21.378,18,22,18.622,22,19.389v0.223C22,20.378,21.378,21,20.611,21z" fill="#F2F2F2" />
  <path d="M12.5,4H12v5h0.5C13.881,9,15,7.881,15,6.5S13.881,4,12.5,4z" fill="#F2F2F2" />
  <path d="M12,4h-2c-4.411,0-8,3.589-8,8h5c0-1.654,1.346-3,3-3h2V4z" opacity=".35" fill="#F2F2F2" />
  <path d="M12.5,20H12v-5h0.5c1.381,0,2.5,1.119,2.5,2.5S13.881,20,12.5,20z" opacity=".35" fill="#F2F2F2" />
  <path d="M12,20h-2c-4.411,0-8-3.589-8-8h5c0,1.654,1.346,3,3,3h2V20z" fill="#F2F2F2" />
</svg>