<?xml version="1.0" encoding="utf-8"?>
<svg xmlns="http://www.w3.org/2000/svg" viewBox="0 0 24 24" width="384" height="384">
  <path d="M21.427,12.015l-1.73-2.106C19.215,5.505,16,2,11,2c-5.637,0-8.977,3.928-8.977,9c0,3.638,1.887,5.297,2.656,7.832C5.067,20.11,6.222,21,7.557,21h8.628c1.429,0,2.66-1.009,2.941-2.41l0.524-2.614l1.124-0.611C21.995,14.7,22.309,13.089,21.427,12.015z" opacity=".35" fill="#F2F2F2" />
  <path d="M11.196,13.973H11.19c-0.67,0-1.187-0.605-1.072-1.265c0.35-2.013,1.917-2.083,1.917-3.333c0-0.65-0.194-1.124-0.896-1.124c-0.452,0-0.718,0.289-0.873,0.597c-0.209,0.417-0.691,0.622-1.15,0.541l0,0C8.42,9.265,7.993,8.519,8.289,7.877C8.711,6.96,9.575,6,11.285,6c2.776,0,3.148,2.174,3.148,3.196c0,2.416-1.799,2.506-2.172,3.898C12.127,13.596,11.716,13.973,11.196,13.973z M12.639,16.533c0,0.412-0.127,0.76-0.382,1.043C12,17.858,11.666,18,11.253,18c-0.414,0-0.748-0.142-1.003-0.424c-0.255-0.283-0.384-0.631-0.384-1.043c0-0.403,0.129-0.75,0.384-1.045c0.255-0.293,0.589-0.439,1.003-0.439c0.412,0,0.747,0.146,1.003,0.439C12.511,15.783,12.639,16.131,12.639,16.533z" fill="#F2F2F2" />
</svg>