<?xml version="1.0" encoding="utf-8"?>
<svg xmlns="http://www.w3.org/2000/svg" viewBox="0 0 48 48" width="144" height="144">
  <path d="M13 7C9.691 7 7 9.691 7 13C7 16.309 9.691 19 13 19C16.309 19 19 16.309 19 13C19 9.691 16.309 7 13 7 z M 35 7C34.793188 7 34.588197 7.0107327 34.386719 7.03125C31.364545 7.33901 29 9.8978125 29 13C29 14.447688 29.514539 15.776937 30.371094 16.814453C31.472379 18.148402 33.138687 19 35 19C38.309 19 41 16.309 41 13C41 9.691 38.309 7 35 7 z M 24 17C20.897812 17 18.33901 19.364545 18.03125 22.386719C18.010733 22.588197 18 22.793187 18 23C18 26.102188 20.364545 28.66099 23.386719 28.96875C23.588197 28.989267 23.793187 29 24 29C27.309 29 30 26.309 30 23C30 19.691 27.309 17 24 17 z M 24 20C25.654 20 27 21.346 27 23C27 24.654 25.654 26 24 26C22.346 26 21 24.654 21 23C21 22.79325 21.020512 22.591582 21.060547 22.396484C21.340793 21.030801 22.55275 20 24 20 z M 7.5 21C5.57 21 4 22.57 4 24.5L4 27C4 30.364 7.953 33 13 33C13.073 33 13.142844 32.993188 13.214844 32.992188C13.872844 30.691187 15.991 29 18.5 29L18.720703 29C17.055703 27.534 16 25.393 16 23C16 22.308 16.096719 21.64 16.261719 21L7.5 21 z M 31.738281 21C31.903281 21.64 32 22.308 32 23C32 25.393 30.944297 27.534 29.279297 29L29.5 29C32.009 29 34.127156 30.691187 34.785156 32.992188C34.857156 32.993187 34.927 33 35 33C40.047 33 44 30.364 44 27L44 24.5C44 22.57 42.43 21 40.5 21L31.738281 21 z M 18.5 31C16.57 31 15 32.57 15 34.5L15 37C15 40.364 18.953 43 24 43C29.047 43 33 40.364 33 37L33 34.5C33 32.57 31.43 31 29.5 31L18.5 31 z M 18.5 34L29.5 34C29.775 34 30 34.225 30 34.5L30 37C30 38.416 27.434 40 24 40C20.566 40 18 38.416 18 37L18 34.5C18 34.43125 18.013672 34.366406 18.039062 34.306641C18.115234 34.127344 18.29375 34 18.5 34 z" fill="#F2F2F2" />
</svg>