<?xml version="1.0" encoding="utf-8"?>
<svg xmlns="http://www.w3.org/2000/svg" viewBox="0 0 24 24" width="384" height="384">
  <path d="M4,20h2c1.105,0,2-0.895,2-2V6c0-1.105-0.895-2-2-2H4C2.895,4,2,4.895,2,6v12C2,19.105,2.895,20,4,20z" fill="#F2F2F2" />
  <path d="M13,12h-1c-1.105,0-2,0.895-2,2v4c0,1.105,0.895,2,2,2h1c1.105,0,2-0.895,2-2v-4 C15,12.895,14.105,12,13,12z" opacity=".35" fill="#F2F2F2" />
  <path d="M20,10h-8c-1.105,0-2-0.895-2-2V6c0-1.105,0.895-2,2-2h8c1.105,0,2,0.895,2,2v2 C22,9.105,21.105,10,20,10z" opacity=".35" fill="#F2F2F2" />
  <path d="M20,20h-1c-1.105,0-2-0.895-2-2v-4c0-1.105,0.895-2,2-2h1c1.105,0,2,0.895,2,2v4C22,19.105,21.105,20,20,20z" fill="#F2F2F2" />
</svg>