<?xml version="1.0" encoding="utf-8"?>
<svg xmlns="http://www.w3.org/2000/svg" viewBox="0 0 128 128" width="512" height="512">
  <path d="M14 1C6.8 1 1 6.8 1 14L1 28L1 81C1 82.7 2.3 84 4 84C5.7 84 7 82.7 7 81L7 35L121 35L121 81C121 82.7 122.3 84 124 84C125.7 84 127 82.7 127 81L127 14C127 6.8 121.2 1 114 1L14 1 z M 14 7L114 7C117.9 7 121 10.1 121 14L121 29L7 29L7 14C7 10.1 10.1 7 14 7 z M 18 15C16.3 15 15 16.3 15 18C15 19.7 16.3 21 18 21L22 21C23.7 21 25 19.7 25 18C25 16.3 23.7 15 22 15L18 15 z M 34 15C32.3 15 31 16.3 31 18C31 19.7 32.3 21 34 21L38 21C39.7 21 41 19.7 41 18C41 16.3 39.7 15 38 15L34 15 z M 93.900391 81.099609C86.700391 81.099609 80.900391 86.899609 80.900391 94.099609C80.900391 95.599609 81.199609 97.000391 81.599609 98.400391L70 104.69922C67.7 102.39922 64.5 101 61 101C56.1 101 51.899219 103.69961 49.699219 107.59961L39 104.59961L39 104C39 96.8 33.2 91 26 91C18.8 91 13 96.8 13 104C13 106.2 13.5 108.2 14.5 110L2.6992188 121.90039C1.4992188 123.10039 1.4992188 124.99961 2.6992188 126.09961C3.2992188 126.69961 4.0007813 127 4.8007812 127C5.6007812 127 6.3003906 126.69961 6.9003906 126.09961L18.300781 114.5C20.400781 116 23.100391 117 25.900391 117C30.800391 117 34.999219 114.30039 37.199219 110.40039L47.900391 113.5L47.900391 114.09961C47.900391 121.29961 53.700391 127.09961 60.900391 127.09961C68.100391 127.09961 73.900391 121.29961 73.900391 114.09961C73.900391 112.59961 73.599219 111.20078 73.199219 109.80078L84.900391 103.40039C87.300391 105.60039 90.5 107 94 107C96.5 107 98.800781 106.29961 100.80078 105.09961L108.90039 113.19922C109.50039 113.79922 110.3 114.09961 111 114.09961C111.7 114.09961 112.49961 113.79922 113.09961 113.19922C114.29961 111.99922 114.29961 110.1 113.09961 109L105 100.90039C106.2 98.900391 106.90039 96.599609 106.90039 94.099609C106.90039 86.899609 101.10039 81.099609 93.900391 81.099609 z M 94 87C97.9 87 101 90.1 101 94C101 97.9 97.9 101 94 101C90.1 101 87 97.9 87 94C87 90.1 90.1 87 94 87 z M 26 97C29.9 97 33 100.1 33 104C33 107.9 29.9 111 26 111C22.1 111 19 107.9 19 104C19 100.1 22.1 97 26 97 z M 61 107C64.9 107 68 110.1 68 114C68 117.9 64.9 121 61 121C57.1 121 54 117.9 54 114C54 110.1 57.1 107 61 107 z M 120.96289 118C120.20039 118 119.45039 118.30039 118.90039 118.90039C117.70039 120.10039 117.70039 121.99961 118.90039 123.09961L121.90039 126.09961C122.50039 126.69961 123.3 127 124 127C124.7 127 125.49961 126.69961 126.09961 126.09961C127.29961 124.89961 127.29961 123.00039 126.09961 121.90039L123.09961 118.90039C122.49961 118.30039 121.72539 118 120.96289 118 z" fill="#F2F2F2" />
</svg>