<?xml version="1.0" encoding="utf-8"?>
<svg xmlns="http://www.w3.org/2000/svg" viewBox="0 0 16 16" width="512" height="512">
  <path d="M10.5 1C9.601563 1 8.707031 1.34375 8.023438 2.023438L8.03125 2.015625L2.53125 7.265625L3.21875 7.984375L8.726563 2.734375L8.734375 2.734375C9.714844 1.75 11.285156 1.75 12.265625 2.734375C13.25 3.714844 13.246094 5.285156 12.265625 6.265625L5.566406 12.554688L5.5625 12.5625C4.96875 13.152344 4.03125 13.152344 3.4375 12.5625C2.851563 11.972656 2.851563 11.03125 3.4375 10.441406C3.4375 10.441406 3.4375 10.4375 3.4375 10.4375L10.140625 4.152344L10.144531 4.148438C10.34375 3.945313 10.652344 3.945313 10.855469 4.148438C11.054688 4.34375 11.054688 4.652344 10.855469 4.851563L5.035156 10.257813L5.714844 10.992188L11.554688 5.566406L11.5625 5.5625C12.140625 4.980469 12.144531 4.019531 11.5625 3.4375C10.980469 2.859375 10.019531 2.855469 9.4375 3.4375L2.738281 9.726563L2.734375 9.734375C1.761719 10.703125 1.761719 12.296875 2.734375 13.265625C3.703125 14.238281 5.296875 14.238281 6.265625 13.265625L12.96875 6.980469L12.972656 6.976563C14.335938 5.613281 14.335938 3.386719 12.972656 2.023438C12.292969 1.34375 11.398438 1 10.5 1Z" fill="#F2F2F2" />
</svg>