<?xml version="1.0" encoding="utf-8"?>
<svg xmlns="http://www.w3.org/2000/svg" viewBox="0 0 48 48" width="144" height="144">
  <path d="M8.5 8C6.0324991 8 4 10.032499 4 12.5L4 35.5C4 37.967501 6.0324991 40 8.5 40L39.5 40C41.967501 40 44 37.967501 44 35.5L44 12.5C44 10.032499 41.967501 8 39.5 8L8.5 8 z M 8.5 11L39.5 11C40.346499 11 41 11.653501 41 12.5L41 35.5C41 36.346499 40.346499 37 39.5 37L8.5 37C7.6535009 37 7 36.346499 7 35.5L7 12.5C7 11.653501 7.6535009 11 8.5 11 z M 16 17 A 3 3 0 0 0 16 23 A 3 3 0 0 0 16 17 z M 26.5 19 A 1.50015 1.50015 0 1 0 26.5 22L35.5 22 A 1.50015 1.50015 0 1 0 35.5 19L26.5 19 z M 12.5 25C11.672 25 11 25.672 11 26.5C11 28 11.000391 31 15.900391 31L16.099609 31C20.999609 31 21 28 21 26.5C21 25.672 20.328 25 19.5 25L12.5 25 z M 26.5 26 A 1.50015 1.50015 0 1 0 26.5 29L35.5 29 A 1.50015 1.50015 0 1 0 35.5 26L26.5 26 z" fill="#F2F2F2" />
</svg>