<?xml version="1.0" encoding="utf-8"?>
<svg xmlns="http://www.w3.org/2000/svg" viewBox="0 0 24 24" width="480" height="480">
  <path d="M19.09375 2C18.441406 2 16.15625 2.226563 16.15625 5L18.25 5C18.25 4.085938 18.746094 3.75 19.09375 3.75C19.625 3.75 19.90625 4.175781 19.90625 5C19.90625 6.726563 17.914063 6.5625 18.03125 9.59375L19.875 9.59375C19.769531 7.261719 22 7.359375 22 4.90625C22 4.253906 21.894531 2 19.09375 2 Z M 10 6C7.789063 6 6 7.789063 6 10C6 12.210938 7.789063 14 10 14C12.210938 14 14 12.210938 14 10C14 7.789063 12.210938 6 10 6 Z M 19 10.71875C18.046875 10.71875 17.84375 11.535156 17.84375 11.875C17.84375 12.214844 18.003906 13 19 13C19.996094 13 20.125 12.191406 20.125 11.875C20.125 11.558594 19.953125 10.71875 19 10.71875 Z M 10 16C3.921875 16 2 20 2 20L2 22L18 22L18 20C18 20 16.078125 16 10 16Z" fill="#F2F2F2" />
</svg>